<?xml version="1.0" standalone="no"?>
<!DOCTYPE svg PUBLIC "-//W3C//DTD SVG 20010904//EN"
 "http://www.w3.org/TR/2001/REC-SVG-20010904/DTD/svg10.dtd">
<svg version="1.0" xmlns="http://www.w3.org/2000/svg"
 width="920.000000pt" height="800.000000pt" viewBox="0 0 920.000000 800.000000"
 preserveAspectRatio="xMidYMid meet">

<g transform="translate(0.000000,800.000000) scale(0.100000,-0.100000)"
fill="#FFF" stroke="none">
<path d="M4569 7596 c-2 -2 -63 -8 -134 -11 -140 -8 -179 -11 -340 -30 -51 -6
-87 -13 -165 -30 -41 -8 -86 -17 -100 -19 -14 -2 -32 -6 -40 -9 -17 -6 -119
-31 -135 -33 -5 0 -23 -6 -39 -13 -16 -6 -31 -9 -34 -6 -3 2 -10 1 -16 -4 -6
-4 -63 -25 -126 -46 -501 -165 -979 -463 -1371 -854 -231 -231 -386 -429 -552
-705 -66 -110 -206 -380 -213 -411 -1 -5 -20 -55 -42 -110 -22 -55 -52 -138
-67 -185 -16 -47 -32 -90 -36 -96 -5 -6 -6 -13 -4 -16 3 -3 0 -18 -6 -34 -7
-16 -13 -36 -14 -45 -2 -17 -24 -105 -32 -129 -3 -8 -7 -27 -9 -42 -2 -15 -9
-47 -14 -70 -6 -24 -11 -50 -11 -58 -1 -8 -3 -22 -6 -30 -3 -8 -7 -26 -8 -40
-2 -14 -6 -41 -8 -60 -18 -123 -41 -416 -41 -510 0 -94 23 -387 41 -510 2 -19
6 -46 8 -60 1 -14 5 -32 8 -40 3 -8 5 -22 6 -30 0 -8 7 -44 15 -80 8 -35 12
-68 10 -72 -2 -3 0 -9 6 -13 6 -4 8 -10 5 -15 -14 -22 86 -346 166 -542 366
-889 1078 -1601 1969 -1967 113 -47 362 -132 378 -130 4 1 12 0 17 -1 6 -1 15
-3 20 -4 19 -3 120 -28 135 -33 8 -3 26 -7 40 -9 14 -2 59 -11 100 -19 99 -22
114 -24 245 -39 100 -11 132 -14 260 -22 154 -9 162 -9 330 1 127 7 159 10
260 21 131 15 146 17 245 39 41 8 86 17 100 19 14 2 32 6 40 9 17 6 119 31
135 33 6 0 17 4 25 7 8 4 24 8 35 10 11 2 27 7 35 10 8 4 76 27 150 53 1035
356 1878 1214 2215 2254 16 47 32 90 36 96 5 6 6 13 4 16 -3 3 0 18 6 34 7 16
13 36 14 45 2 17 24 105 32 129 3 8 7 27 9 42 2 15 9 47 14 70 6 24 11 50 11
58 1 8 3 22 6 30 3 8 7 29 9 45 2 17 6 44 8 60 18 137 40 411 40 505 0 94 -22
368 -40 505 -2 17 -6 44 -8 60 -2 17 -6 37 -9 45 -3 8 -5 22 -6 30 0 8 -5 34
-11 58 -5 23 -12 55 -14 70 -2 15 -6 34 -9 42 -8 24 -30 112 -32 129 -1 9 -7
29 -14 45 -6 16 -9 31 -6 34 2 3 1 10 -4 16 -4 6 -20 49 -36 96 -337 1040
-1180 1898 -2215 2254 -74 26 -142 49 -150 53 -8 3 -24 8 -35 10 -11 2 -27 6
-35 10 -8 3 -19 7 -25 7 -16 2 -118 27 -135 33 -8 3 -26 7 -40 9 -14 2 -59 11
-100 19 -99 22 -118 25 -245 39 -106 11 -153 15 -250 20 -55 3 -123 8 -151 11
-27 3 -52 4 -55 1z m246 -2296 c759 -70 1482 -424 2248 -1102 54 -48 99 -89
100 -92 8 -23 -416 -429 -636 -610 -583 -477 -1104 -729 -1692 -817 -133 -20
-480 -17 -625 5 -605 94 -1180 411 -1762 974 -118 115 -306 315 -391 417 l-25
31 105 94 c764 687 1470 1033 2248 1103 90 8 327 6 430 -3z"/>
<path d="M4385 4931 c-421 -49 -846 -231 -1259 -538 -137 -102 -376 -308 -376
-323 0 -16 146 -174 296 -320 385 -376 773 -602 1187 -692 87 -19 133 -22 317
-23 248 0 348 15 567 87 245 80 581 271 833 473 207 166 506 453 497 479 -6
17 -219 199 -344 293 -245 184 -540 350 -778 438 -117 43 -291 89 -419 111
-105 18 -418 26 -521 15z m311 -191 c45 -6 114 -21 154 -35 68 -23 194 -87
204 -103 2 -4 -95 -144 -216 -311 -121 -166 -218 -304 -216 -307 2 -2 161 37
354 86 192 49 357 90 366 90 40 0 46 -254 9 -384 -43 -155 -139 -304 -256
-399 -71 -57 -215 -129 -303 -152 -347 -88 -722 87 -877 410 -98 203 -105 442
-18 639 103 235 322 413 558 455 130 23 139 24 241 11z"/>
</g>
</svg>
